<svg xmlns="http://www.w3.org/2000/svg" width="44" height="34"><path fill="#CCC" d="M29.98 7.018H7.17c-1.208 0-2.197-.748-2.197-2s.99-2 2.2-2h22.81c1.208 0 2.198.748 2.198 2s-.99 2-2.2 2zM37.61 7a2 2 0 1 1 0-4 2 2 0 0 1 0 4zM0 0v10h44V0H0zm29.98 31.018H7.17c-1.208 0-2.197-.748-2.197-2s.99-2 2.2-2h22.81c1.208 0 2.198.748 2.198 2s-.99 2-2.2 2zM37.61 31a2 2 0 1 1 0-4 2 2 0 0 1 0 4zM0 24v10h44V24H0zm29.98-4.982H7.17c-1.208 0-2.197-.748-2.197-2s.99-2 2.2-2h22.81c1.208 0 2.198.748 2.198 2s-.99 2-2.2 2zM37.61 19a2 2 0 1 1 0-4 2 2 0 0 1 0 4zM0 12v10h44V12H0z"/></svg>